<svg width="22" height="22" viewBox="0 0 22 22" fill="none" xmlns="http://www.w3.org/2000/svg">
<g clip-path="url(#clip0_80_31178)">
<path d="M22.0001 10.3099C21.8675 8.16495 21.1101 6.10565 19.8213 4.3859C18.5325 2.66616 16.7686 1.36115 14.7471 0.63176C12.7256 -0.0976298 10.5349 -0.219513 8.44491 0.281135C6.35496 0.781784 4.4572 1.88308 2.9856 3.44925C1.51399 5.01542 0.532862 6.978 0.163171 9.09504C-0.206519 11.2121 0.0513882 13.391 0.905098 15.3633C1.75881 17.3355 3.171 19.0148 4.96757 20.1941C6.76415 21.3735 8.86657 22.0013 11.0156 22.0002H17.4167C18.6319 21.999 19.797 21.5157 20.6563 20.6564C21.5156 19.7971 21.9988 18.6321 22.0001 17.4168V10.3099ZM20.1667 17.4168C20.1667 18.1462 19.877 18.8457 19.3613 19.3614C18.8455 19.8771 18.1461 20.1668 17.4167 20.1668H11.0156C9.72216 20.1663 8.44333 19.8931 7.26253 19.365C6.08173 18.837 5.02548 18.0661 4.16264 17.1024C3.29563 16.1393 2.64458 15.0019 2.25313 13.7665C1.86168 12.5311 1.73888 11.2263 1.89298 9.9396C2.13629 7.91004 3.04815 6.01919 4.4848 4.56511C5.92144 3.11104 7.80117 2.17645 9.82764 1.90868C10.2229 1.85914 10.6209 1.83403 11.0193 1.83351C13.1556 1.82769 15.2257 2.57409 16.8667 3.94185C17.8251 4.73838 18.6118 5.72124 19.179 6.83084C19.7463 7.94045 20.0823 9.15369 20.1667 10.397V17.4168Z" fill="white"/>
<path d="M7.33317 8.24986H10.9998C11.243 8.24986 11.4761 8.15329 11.648 7.98138C11.8199 7.80947 11.9165 7.57631 11.9165 7.3332C11.9165 7.09008 11.8199 6.85693 11.648 6.68502C11.4761 6.51311 11.243 6.41653 10.9998 6.41653H7.33317C7.09006 6.41653 6.8569 6.51311 6.68499 6.68502C6.51308 6.85693 6.4165 7.09008 6.4165 7.3332C6.4165 7.57631 6.51308 7.80947 6.68499 7.98138C6.8569 8.15329 7.09006 8.24986 7.33317 8.24986Z" fill="white"/>
<path d="M14.6665 10.0835H7.33317C7.09006 10.0835 6.8569 10.1801 6.68499 10.352C6.51308 10.5239 6.4165 10.7571 6.4165 11.0002C6.4165 11.2433 6.51308 11.4764 6.68499 11.6484C6.8569 11.8203 7.09006 11.9168 7.33317 11.9168H14.6665C14.9096 11.9168 15.1428 11.8203 15.3147 11.6484C15.4866 11.4764 15.5832 11.2433 15.5832 11.0002C15.5832 10.7571 15.4866 10.5239 15.3147 10.352C15.1428 10.1801 14.9096 10.0835 14.6665 10.0835Z" fill="white"/>
<path d="M14.6665 13.75H7.33317C7.09006 13.75 6.8569 13.8466 6.68499 14.0185C6.51308 14.1904 6.4165 14.4236 6.4165 14.6667C6.4165 14.9098 6.51308 15.1429 6.68499 15.3149C6.8569 15.4868 7.09006 15.5833 7.33317 15.5833H14.6665C14.9096 15.5833 15.1428 15.4868 15.3147 15.3149C15.4866 15.1429 15.5832 14.9098 15.5832 14.6667C15.5832 14.4236 15.4866 14.1904 15.3147 14.0185C15.1428 13.8466 14.9096 13.75 14.6665 13.75Z" fill="white"/>
</g>
<defs>
<clipPath id="clip0_80_31178">
<rect width="22" height="22" fill="white"/>
</clipPath>
</defs>
</svg>
