<svg width="20" height="30" viewBox="0 0 20 30" fill="none" xmlns="http://www.w3.org/2000/svg">
<g clip-path="url(#clip0_139_39850)">
<path d="M3.33301 9.99996C3.00447 10.0008 2.67902 9.93653 2.37549 9.8108C2.07196 9.68507 1.79637 9.50039 1.56468 9.26746L0.27801 8.12246C0.112913 7.97527 0.0130503 7.76852 0.000391621 7.54769C-0.0122671 7.32687 0.0633147 7.11006 0.21051 6.94496C0.357705 6.77987 0.564456 6.68 0.78528 6.66735C1.0061 6.65469 1.22291 6.73027 1.38801 6.87746L2.70884 8.0558C2.78446 8.14071 2.87665 8.20925 2.97974 8.2572C3.08283 8.30516 3.19465 8.3315 3.30831 8.33463C3.42196 8.33775 3.53506 8.31758 3.64063 8.27536C3.7462 8.23314 3.84202 8.16976 3.92218 8.08913L6.92551 5.22996C7.08701 5.08619 7.29806 5.01081 7.5141 5.01976C7.73013 5.0287 7.93424 5.12126 8.08329 5.27789C8.23235 5.43452 8.3147 5.64296 8.31293 5.85917C8.31117 6.07539 8.22544 6.28245 8.07384 6.43663L5.08301 9.28163C4.85282 9.51048 4.57978 9.69171 4.2795 9.81497C3.97923 9.93823 3.6576 10.0011 3.33301 9.99996ZM19.9997 8.3333C19.9997 8.11228 19.9119 7.90032 19.7556 7.74404C19.5993 7.58776 19.3874 7.49996 19.1663 7.49996H10.833C10.612 7.49996 10.4 7.58776 10.2438 7.74404C10.0875 7.90032 9.99968 8.11228 9.99968 8.3333C9.99968 8.55431 10.0875 8.76627 10.2438 8.92255C10.4 9.07883 10.612 9.16663 10.833 9.16663H19.1663C19.3874 9.16663 19.5993 9.07883 19.7556 8.92255C19.9119 8.76627 19.9997 8.55431 19.9997 8.3333ZM5.08301 15.9483L8.07384 13.1033C8.15732 13.029 8.22499 12.9386 8.27284 12.8376C8.32068 12.7366 8.34772 12.627 8.35235 12.5154C8.35697 12.4037 8.33908 12.2922 8.29975 12.1876C8.26042 12.083 8.20044 11.9874 8.12339 11.9064C8.04634 11.8254 7.9538 11.7608 7.85126 11.7163C7.74872 11.6719 7.63828 11.6485 7.52652 11.6476C7.41476 11.6467 7.30396 11.6682 7.20071 11.711C7.09746 11.7538 7.00387 11.8169 6.92551 11.8966L3.92551 14.7558C3.76687 14.9075 3.55584 14.9921 3.33634 14.9921C3.11685 14.9921 2.90582 14.9075 2.74718 14.7558L1.42218 13.435C1.26501 13.2832 1.05451 13.1992 0.836009 13.2011C0.617512 13.203 0.408501 13.2906 0.253994 13.4451C0.0994876 13.5996 0.0118468 13.8086 0.00994815 14.0271C0.00804947 14.2456 0.0920448 14.4561 0.243843 14.6133L1.56468 15.9341C2.03107 16.4006 2.66294 16.6639 3.32259 16.6665C3.98224 16.6692 4.61621 16.411 5.08634 15.9483H5.08301ZM19.9997 15C19.9997 14.7789 19.9119 14.567 19.7556 14.4107C19.5993 14.2544 19.3874 14.1666 19.1663 14.1666H10.833C10.612 14.1666 10.4 14.2544 10.2438 14.4107C10.0875 14.567 9.99968 14.7789 9.99968 15C9.99968 15.221 10.0875 15.4329 10.2438 15.5892C10.4 15.7455 10.612 15.8333 10.833 15.8333H19.1663C19.3874 15.8333 19.5993 15.7455 19.7556 15.5892C19.9119 15.4329 19.9997 15.221 19.9997 15ZM5.08301 22.615L8.07051 19.77C8.15399 19.6956 8.22166 19.6053 8.26951 19.5043C8.31735 19.4033 8.34439 19.2937 8.34901 19.182C8.35363 19.0704 8.33575 18.9589 8.29641 18.8543C8.25708 18.7497 8.19711 18.654 8.12006 18.5731C8.04301 18.4921 7.95046 18.4275 7.84792 18.383C7.74539 18.3385 7.63495 18.3152 7.52319 18.3142C7.41143 18.3133 7.30063 18.3349 7.19737 18.3777C7.09412 18.4205 7.00054 18.4836 6.92218 18.5633L3.92218 21.4225C3.84202 21.5031 3.7462 21.5665 3.64063 21.6087C3.53506 21.6509 3.42196 21.6711 3.30831 21.668C3.19465 21.6648 3.08283 21.6385 2.97974 21.5905C2.87665 21.5426 2.78446 21.474 2.70884 21.3891L1.38801 20.2108C1.22291 20.0636 1.0061 19.988 0.78528 20.0007C0.564456 20.0133 0.357705 20.1132 0.21051 20.2783C0.0633147 20.4434 -0.0122671 20.6602 0.000391621 20.881C0.0130503 21.1019 0.112913 21.3086 0.27801 21.4558L1.56468 22.6008C2.03107 23.0673 2.66294 23.3306 3.32259 23.3332C3.98224 23.3359 4.61621 23.0777 5.08634 22.615H5.08301ZM19.9997 21.6666C19.9997 21.4456 19.9119 21.2337 19.7556 21.0774C19.5993 20.9211 19.3874 20.8333 19.1663 20.8333H10.833C10.612 20.8333 10.4 20.9211 10.2438 21.0774C10.0875 21.2337 9.99968 21.4456 9.99968 21.6666C9.99968 21.8876 10.0875 22.0996 10.2438 22.2559C10.4 22.4122 10.612 22.5 10.833 22.5H19.1663C19.3874 22.5 19.5993 22.4122 19.7556 22.2559C19.9119 22.0996 19.9997 21.8876 19.9997 21.6666Z" fill="#1950D2"/>
</g>
<defs>
<clipPath id="clip0_139_39850">
<rect width="20" height="20" fill="white" transform="translate(0 5)"/>
</clipPath>
</defs>
</svg>
