<svg width="60" height="60" viewBox="0 0 60 60" fill="none" xmlns="http://www.w3.org/2000/svg">
<rect width="60" height="60" rx="30" fill="#E0E5FF"/>
<g clip-path="url(#clip0_117_39121)">
<path d="M41.7328 22.1013L33.1298 18.0028C31.2361 16.8717 28.879 16.8516 26.9663 17.9503L18.2665 22.1013C18.2339 22.1177 18.2 22.1352 18.1685 22.1538C16.1039 23.3343 15.3872 25.9649 16.5677 28.0295C16.9678 28.7294 17.5564 29.3028 18.2665 29.6847L20.6663 30.828V36.5447C20.6678 39.1009 22.3311 41.3593 24.7718 42.119C26.4704 42.6104 28.2316 42.851 29.9997 42.833C31.7675 42.8528 33.5287 42.6143 35.2276 42.1249C37.6683 41.3652 39.3316 39.1068 39.333 36.5505V30.8257L41.6664 29.7103V39.333C41.6664 39.9773 42.1887 40.4996 42.833 40.4996C43.4774 40.4996 43.9997 39.9773 43.9997 39.333V25.333C44.0075 23.963 42.9257 22.6974 41.7328 22.1013ZM36.9996 36.5505C37.0002 38.0795 36.0082 39.432 34.5496 39.8907C33.0706 40.3133 31.5378 40.5184 29.9996 40.4997C28.4615 40.5184 26.9287 40.3133 25.4496 39.8907C23.9911 39.4319 22.999 38.0795 22.9996 36.5505V31.9399L26.8695 33.7832C27.8243 34.3502 28.9149 34.6482 30.0253 34.6454C31.0823 34.6529 32.1216 34.373 33.0318 33.8357L36.9996 31.9398V36.5505ZM40.733 27.5788L31.934 31.7788C30.7071 32.4932 29.1864 32.473 27.979 31.7263L19.3701 27.6313C18.4105 27.1139 18.0521 25.9165 18.5696 24.9569C18.7446 24.6324 19.007 24.3634 19.327 24.1803L28.0711 20.0037C29.2984 19.2909 30.8183 19.311 32.0261 20.0562L40.6291 24.1547C41.2618 24.506 41.6577 25.1694 41.6663 25.893C41.6674 26.5785 41.3145 27.2159 40.733 27.5788Z" fill="#1950D2"/>
</g>
<defs>
<clipPath id="clip0_117_39121">
<rect width="28" height="28" fill="white" transform="translate(16 16)"/>
</clipPath>
</defs>
</svg>
