<svg width="48" height="48" viewBox="0 0 48 48" fill="none" xmlns="http://www.w3.org/2000/svg">
<path d="M17.5 25.5L22.2 20.8C23.3 19.7 25.1 19.7 26.2 20.8L28.8 23.4C29.4 24 30.4 24 31 23.4L35 19.5" stroke="#2F6CF6" stroke-width="3" stroke-linecap="round" stroke-linejoin="round"/>
<path d="M13 21.5L17.5 26" stroke="#2F6CF6" stroke-width="3" stroke-linecap="round" stroke-linejoin="round"/>
<path d="M30.5 27.5L33.5 24.5" stroke="#2F6CF6" stroke-width="3" stroke-linecap="round" stroke-linejoin="round"/>
<path d="M10.5 17L17 23.5" stroke="#2F6CF6" stroke-width="3" stroke-linecap="round" stroke-linejoin="round"/>
<path d="M32 17L38 23" stroke="#2F6CF6" stroke-width="3" stroke-linecap="round" stroke-linejoin="round"/>
<path d="M20.5 30.5L22.8 28.2C23.5 27.5 24.6 27.5 25.3 28.2L26.6 29.5C27.3 30.2 28.4 30.2 29.1 29.5L31 27.6" stroke="#2F6CF6" stroke-width="3" stroke-linecap="round" stroke-linejoin="round"/>
<path d="M14 30V32C14 35.3 16.7 38 20 38H28C31.3 38 34 35.3 34 32V30" stroke="#2F6CF6" stroke-width="3" stroke-linecap="round"/>
</svg>
