<svg width="60" height="60" viewBox="0 0 60 60" fill="none" xmlns="http://www.w3.org/2000/svg">
<rect width="60" height="60" rx="30" fill="#E0E5FF"/>
<g clip-path="url(#clip0_152_40463)">
<path d="M44 34.6667V40.5C44 41.4283 43.6313 42.3185 42.9749 42.9749C42.3185 43.6312 41.4283 44 40.5 44H34.6667C33.0299 43.9983 31.4224 43.5663 30.0054 42.7472C28.5884 41.9281 27.4117 40.7508 26.5933 39.3333C27.4728 39.327 28.3494 39.2301 29.209 39.044C29.8637 39.8626 30.6942 40.5234 31.6389 40.9774C32.5837 41.4314 33.6185 41.6669 34.6667 41.6667H40.5C40.8094 41.6667 41.1062 41.5437 41.325 41.325C41.5438 41.1062 41.6667 40.8094 41.6667 40.5V34.6667C41.6664 33.6181 41.4301 32.5831 40.9753 31.6383C40.5204 30.6935 39.8588 29.8632 39.0393 29.209C39.227 28.3495 39.3255 27.473 39.3333 26.5933C40.7508 27.4117 41.9281 28.5884 42.7472 30.0054C43.5663 31.4224 43.9983 33.0299 44 34.6667ZM36.9732 27.2595C37.0823 25.7564 36.8666 24.2474 36.3406 22.8351C35.8147 21.4228 34.991 20.1403 33.9253 19.0746C32.8597 18.009 31.5772 17.1852 30.1649 16.6593C28.7526 16.1334 27.2436 15.9177 25.7405 16.0268C23.0769 16.331 20.6164 17.5985 18.8224 19.5907C17.0283 21.5829 16.0245 24.1622 16 26.843V32.723C16 35.677 17.7582 37 19.5 37H26.15C28.8319 36.9769 31.4128 35.9738 33.4064 34.1796C35.4 32.3855 36.6686 29.9242 36.9732 27.2595ZM32.275 20.7262C33.1033 21.5562 33.7435 22.5546 34.1525 23.6535C34.5615 24.7525 34.7297 25.9265 34.6457 27.0962C34.3967 29.1771 33.3956 31.0953 31.8309 32.4896C30.2662 33.8839 28.2458 34.6582 26.15 34.6667H19.5C18.4173 34.6667 18.3333 33.1792 18.3333 32.723V26.843C18.3431 24.7481 19.1181 22.729 20.5126 21.1656C21.907 19.6023 23.8248 18.6024 25.905 18.3543C26.0987 18.3403 26.2923 18.3333 26.486 18.3333C27.5608 18.3323 28.6253 18.5431 29.6186 18.9537C30.6119 19.3643 31.5146 19.9666 32.275 20.7262Z" fill="#1950D2"/>
</g>
<defs>
<clipPath id="clip0_152_40463">
<rect width="28" height="28" fill="white" transform="translate(16 16)"/>
</clipPath>
</defs>
</svg>
