<svg width="60" height="60" viewBox="0 0 60 60" fill="none" xmlns="http://www.w3.org/2000/svg">
<rect width="60" height="60" rx="30" fill="#E0E5FF"/>
<g clip-path="url(#clip0_152_40490)">
<path d="M42.2498 20.6387H38.6494C38.4187 20.6387 38.1932 20.7072 38.0014 20.8354C37.8096 20.9636 37.6601 21.1458 37.5718 21.3589C37.4835 21.5721 37.4604 21.8066 37.5054 22.0329C37.5504 22.2592 37.6615 22.467 37.8246 22.6302L39.0916 23.8972L34.9079 28.0797C34.6856 28.2921 34.39 28.4107 34.0825 28.4107C33.775 28.4107 33.4794 28.2921 33.2571 28.0797L33.0588 27.8802C32.3921 27.2433 31.5057 26.8878 30.5837 26.8878C29.6617 26.8878 28.7752 27.2433 28.1086 27.8802L22.1586 33.8302C21.9394 34.05 21.8165 34.3479 21.8169 34.6584C21.8173 34.9689 21.9411 35.2664 22.1609 35.4857C22.3808 35.7049 22.6787 35.8278 22.9892 35.8274C23.2996 35.8269 23.5972 35.7032 23.8164 35.4833L29.7664 29.5333C29.9886 29.3206 30.2843 29.2019 30.5918 29.2019C30.8994 29.2019 31.1951 29.3206 31.4173 29.5333L31.6156 29.7328C32.2825 30.3692 33.1689 30.7243 34.0907 30.7243C35.0125 30.7243 35.8989 30.3692 36.5658 29.7328L40.7494 25.5492L42.0164 26.8162C42.1801 26.9766 42.3875 27.0853 42.6126 27.1287C42.8377 27.172 43.0706 27.148 43.2822 27.0598C43.4938 26.9716 43.6747 26.8229 43.8023 26.6325C43.9299 26.4421 43.9986 26.2182 43.9998 25.989V22.3887C43.9998 21.9245 43.8154 21.4794 43.4872 21.1512C43.159 20.823 42.7139 20.6387 42.2498 20.6387Z" fill="#1950D2"/>
<path d="M42.8333 41.6387H21.8333C20.9051 41.6387 20.0148 41.2699 19.3585 40.6135C18.7021 39.9572 18.3333 39.0669 18.3333 38.1387V17.1667C18.3333 16.8572 18.2104 16.5605 17.9916 16.3417C17.7728 16.1229 17.4761 16 17.1667 16C16.8572 16 16.5605 16.1229 16.3417 16.3417C16.1229 16.5605 16 16.8572 16 17.1667V38.1387C16.0019 39.6852 16.617 41.1679 17.7106 42.2614C18.8042 43.355 20.2868 43.9701 21.8333 43.972H42.8333C43.1428 43.972 43.4395 43.8491 43.6583 43.6303C43.8771 43.4115 44 43.1148 44 42.8053C44 42.4959 43.8771 42.1992 43.6583 41.9804C43.4395 41.7616 43.1428 41.6387 42.8333 41.6387Z" fill="#1950D2"/>
</g>
<defs>
<clipPath id="clip0_152_40490">
<rect width="28" height="28" fill="white" transform="translate(16 16)"/>
</clipPath>
</defs>
</svg>
