<svg width="60" height="60" viewBox="0 0 60 60" fill="none" xmlns="http://www.w3.org/2000/svg">
<rect width="60" height="60" rx="30" fill="#E0E5FF"/>
<g clip-path="url(#clip0_117_39133)">
<path d="M44.0004 42.8336C44.0004 43.1431 43.8775 43.4398 43.6587 43.6586C43.4399 43.8774 43.1432 44.0003 42.8338 44.0003H17.1671C16.8577 44.0003 16.5609 43.8774 16.3421 43.6586C16.1233 43.4398 16.0004 43.1431 16.0004 42.8336C16.0004 42.5242 16.1233 42.2275 16.3421 42.0087C16.5609 41.7899 16.8577 41.667 17.1671 41.667H42.8338C43.1432 41.667 43.4399 41.7899 43.6587 42.0087C43.8775 42.2275 44.0004 42.5242 44.0004 42.8336ZM16.3399 25.9776C16.0885 25.5114 15.9721 24.9842 16.0036 24.4554C16.0351 23.9266 16.2134 23.4171 16.5184 22.984C17.0169 22.2526 17.6844 21.6523 18.4644 21.234L27.2156 16.6793C28.0757 16.232 29.0309 15.9985 30.0004 15.9985C30.9699 15.9985 31.9251 16.232 32.7853 16.6793L41.5353 21.2375C42.3152 21.6558 42.9828 22.2561 43.4813 22.9875C43.7863 23.4206 43.9645 23.9301 43.9961 24.4589C44.0276 24.9877 43.9111 25.5149 43.6598 25.9811C43.3891 26.4931 42.9832 26.921 42.4862 27.2183C41.9892 27.5155 41.4202 27.6707 40.8411 27.667H40.5004V37.0003H41.6671C41.9765 37.0003 42.2733 37.1232 42.492 37.342C42.7108 37.5608 42.8338 37.8576 42.8338 38.167C42.8338 38.4764 42.7108 38.7731 42.492 38.9919C42.2733 39.2107 41.9765 39.3336 41.6671 39.3336H18.3337C18.0243 39.3336 17.7276 39.2107 17.5088 38.9919C17.29 38.7731 17.1671 38.4764 17.1671 38.167C17.1671 37.8576 17.29 37.5608 17.5088 37.342C17.7276 37.1232 18.0243 37.0003 18.3337 37.0003H19.5004V27.667H19.1597C18.5801 27.6706 18.0106 27.515 17.5133 27.2171C17.0161 26.9192 16.6102 26.4904 16.3399 25.9776ZM21.8337 37.0003H25.3338V27.667H21.8337V37.0003ZM27.6671 27.667V37.0003H32.3338V27.667H27.6671ZM38.1671 27.667H34.6671V37.0003H38.1671V27.667ZM18.4072 24.8961C18.4804 25.0311 18.5894 25.1433 18.7221 25.2205C18.8548 25.2976 19.0062 25.3368 19.1597 25.3336H40.8411C40.9946 25.3368 41.146 25.2976 41.2787 25.2205C41.4115 25.1433 41.5204 25.0311 41.5936 24.8961C41.6469 24.807 41.6727 24.704 41.6677 24.6002C41.6627 24.4965 41.6272 24.3965 41.5656 24.3128C41.2829 23.8927 40.9031 23.5469 40.4584 23.3048L31.7084 18.7466C31.1811 18.473 30.5957 18.3301 30.0016 18.3301C29.4075 18.3301 28.8221 18.473 28.2948 18.7466L19.5447 23.3048C19.1002 23.5477 18.7205 23.8938 18.4376 24.314C18.3759 24.3973 18.3401 24.4969 18.3347 24.6005C18.3293 24.704 18.3545 24.8069 18.4072 24.8961Z" fill="#1950D2"/>
</g>
<defs>
<clipPath id="clip0_117_39133">
<rect width="28" height="28" fill="white" transform="translate(16 16)"/>
</clipPath>
</defs>
</svg>
