<svg width="60" height="60" viewBox="0 0 60 60" fill="none" xmlns="http://www.w3.org/2000/svg">
<rect width="60" height="60" rx="30" fill="#E0E5FF"/>
<g clip-path="url(#clip0_117_39109)">
<path d="M37.678 18.4974L30.3688 16.0603C30.1295 15.9806 29.8708 15.9806 29.6315 16.0603L22.3223 18.4974C21.1602 18.8835 20.1493 19.6259 19.4332 20.6193C18.7172 21.6126 18.3324 22.8064 18.3335 24.0309V30.0008C18.3335 38.8243 29.0668 43.6974 29.5265 43.9004C29.6756 43.9667 29.837 44.0009 30.0002 44.0009C30.1633 44.0009 30.3247 43.9667 30.4738 43.9004C30.9335 43.6974 41.6668 38.8243 41.6668 30.0008V24.0309C41.668 22.8064 41.2831 21.6126 40.5671 20.6193C39.851 19.6259 38.8401 18.8835 37.678 18.4974ZM39.3335 30.0008C39.3335 36.3649 31.9613 40.5393 30.0002 41.5379C28.0367 40.5428 20.6668 36.3813 20.6668 30.0008V24.0309C20.6669 23.2963 20.8982 22.5802 21.3278 21.9843C21.7575 21.3884 22.3638 20.9428 23.0608 20.7106L30.0002 18.3971L36.9395 20.7106C37.6365 20.9428 38.2428 21.3884 38.6725 21.9843C39.1022 22.5802 39.3334 23.2963 39.3335 24.0309V30.0008Z" fill="#1950D2"/>
<path d="M33.8499 25.6839L28.9639 30.5839L26.3459 27.8539C26.2409 27.739 26.1139 27.6464 25.9724 27.5813C25.831 27.5163 25.678 27.4802 25.5224 27.4752C25.3668 27.4702 25.2118 27.4965 25.0664 27.5523C24.9211 27.6082 24.7885 27.6925 24.6763 27.8004C24.5641 27.9084 24.4746 28.0376 24.4131 28.1807C24.3517 28.3237 24.3195 28.4776 24.3184 28.6333C24.3173 28.7889 24.3474 28.9432 24.4069 29.0871C24.4664 29.231 24.5541 29.3615 24.6648 29.4709L27.3551 32.2709C27.5557 32.4876 27.7982 32.6614 28.0679 32.7817C28.3377 32.902 28.629 32.9664 28.9243 32.9709H28.9628C29.2522 32.9719 29.5389 32.9153 29.8062 32.8046C30.0736 32.6938 30.3163 32.5311 30.5203 32.3258L35.5043 27.3417C35.6131 27.2331 35.6995 27.1041 35.7585 26.9621C35.8175 26.8201 35.848 26.6678 35.8481 26.5141C35.8483 26.3603 35.8182 26.208 35.7595 26.0658C35.7008 25.9237 35.6146 25.7945 35.506 25.6857C35.3974 25.5768 35.2684 25.4904 35.1264 25.4314C34.9844 25.3724 34.8321 25.342 34.6783 25.3418C34.5245 25.3416 34.3722 25.3718 34.2301 25.4305C34.088 25.4892 33.9588 25.5753 33.8499 25.6839Z" fill="#1950D2"/>
</g>
<defs>
<clipPath id="clip0_117_39109">
<rect width="28" height="28" fill="white" transform="translate(16 16)"/>
</clipPath>
</defs>
</svg>
