<svg width="60" height="60" viewBox="0 0 60 60" fill="none" xmlns="http://www.w3.org/2000/svg">
<rect width="60" height="60" rx="30" fill="#E0E5FF"/>
<g clip-path="url(#clip0_152_40473)">
<path d="M17.1667 21.542H20.3587C20.6091 22.4633 21.1557 23.2767 21.9142 23.8566C22.6727 24.4364 23.601 24.7506 24.5557 24.7506C25.5105 24.7506 26.4388 24.4364 27.1973 23.8566C27.9558 23.2767 28.5024 22.4633 28.7528 21.542H42.8333C43.1428 21.542 43.4395 21.4191 43.6583 21.2003C43.8771 20.9815 44 20.6847 44 20.3753C44 20.0659 43.8771 19.7691 43.6583 19.5503C43.4395 19.3316 43.1428 19.2086 42.8333 19.2086H28.7528C28.5024 18.2873 27.9558 17.4739 27.1973 16.894C26.4388 16.3142 25.5105 16 24.5557 16C23.601 16 22.6727 16.3142 21.9142 16.894C21.1557 17.4739 20.6091 18.2873 20.3587 19.2086H17.1667C16.8572 19.2086 16.5605 19.3316 16.3417 19.5503C16.1229 19.7691 16 20.0659 16 20.3753C16 20.6847 16.1229 20.9815 16.3417 21.2003C16.5605 21.4191 16.8572 21.542 17.1667 21.542ZM24.5552 18.3336C24.959 18.3336 25.3537 18.4534 25.6895 18.6777C26.0252 18.9021 26.2869 19.2209 26.4414 19.594C26.5959 19.9671 26.6364 20.3776 26.5576 20.7736C26.4788 21.1697 26.2844 21.5334 25.9988 21.819C25.7133 22.1045 25.3495 22.299 24.9535 22.3777C24.5574 22.4565 24.1469 22.4161 23.7739 22.2616C23.4008 22.107 23.0819 21.8453 22.8576 21.5096C22.6332 21.1738 22.5135 20.7791 22.5135 20.3753C22.5141 19.834 22.7294 19.3151 23.1122 18.9323C23.4949 18.5496 24.0139 18.3343 24.5552 18.3336Z" fill="#1950D2"/>
<path d="M42.8333 28.8323H39.6413C39.3913 27.9108 38.8449 27.0971 38.0865 26.517C37.328 25.9369 36.3997 25.6226 35.4448 25.6226C34.49 25.6226 33.5616 25.9369 32.8032 26.517C32.0447 27.0971 31.4983 27.9108 31.2483 28.8323H17.1667C16.8572 28.8323 16.5605 28.9552 16.3417 29.174C16.1229 29.3928 16 29.6896 16 29.999C16 30.3084 16.1229 30.6052 16.3417 30.8239C16.5605 31.0427 16.8572 31.1657 17.1667 31.1657H31.2483C31.4983 32.0872 32.0447 32.9009 32.8032 33.481C33.5616 34.0611 34.49 34.3754 35.4448 34.3754C36.3997 34.3754 37.328 34.0611 38.0865 33.481C38.8449 32.9009 39.3913 32.0872 39.6413 31.1657H42.8333C43.1428 31.1657 43.4395 31.0427 43.6583 30.8239C43.8771 30.6052 44 30.3084 44 29.999C44 29.6896 43.8771 29.3928 43.6583 29.174C43.4395 28.9552 43.1428 28.8323 42.8333 28.8323ZM35.4448 32.0407C35.041 32.0407 34.6463 31.9209 34.3105 31.6966C33.9748 31.4722 33.7131 31.1534 33.5586 30.7803C33.4041 30.4072 33.3636 29.9967 33.4424 29.6007C33.5212 29.2046 33.7156 28.8408 34.0012 28.5553C34.2867 28.2698 34.6505 28.0753 35.0465 27.9966C35.4426 27.9178 35.8531 27.9582 36.2261 28.1127C36.5992 28.2673 36.9181 28.529 37.1424 28.8647C37.3668 29.2005 37.4865 29.5952 37.4865 29.999C37.4859 30.5403 37.2706 31.0592 36.8878 31.442C36.5051 31.8247 35.9861 32.04 35.4448 32.0407Z" fill="#1950D2"/>
<path d="M42.8333 38.4586H28.7528C28.5024 37.5373 27.9558 36.7239 27.1973 36.144C26.4388 35.5642 25.5105 35.25 24.5557 35.25C23.601 35.25 22.6727 35.5642 21.9142 36.144C21.1557 36.7239 20.6091 37.5373 20.3587 38.4586H17.1667C16.8572 38.4586 16.5605 38.5815 16.3417 38.8003C16.1229 39.0191 16 39.3159 16 39.6253C16 39.9347 16.1229 40.2314 16.3417 40.4502C16.5605 40.669 16.8572 40.7919 17.1667 40.7919H20.3587C20.6091 41.7133 21.1557 42.5267 21.9142 43.1065C22.6727 43.6864 23.601 44.0006 24.5557 44.0006C25.5105 44.0006 26.4388 43.6864 27.1973 43.1065C27.9558 42.5267 28.5024 41.7133 28.7528 40.7919H42.8333C43.1428 40.7919 43.4395 40.669 43.6583 40.4502C43.8771 40.2314 44 39.9347 44 39.6253C44 39.3159 43.8771 39.0191 43.6583 38.8003C43.4395 38.5815 43.1428 38.4586 42.8333 38.4586ZM24.5552 41.6669C24.1514 41.6669 23.7566 41.5472 23.4209 41.3229C23.0851 41.0985 22.8234 40.7797 22.6689 40.4066C22.5144 40.0335 22.474 39.623 22.5527 39.227C22.6315 38.8309 22.826 38.4671 23.1115 38.1816C23.397 37.8961 23.7608 37.7016 24.1569 37.6229C24.5529 37.5441 24.9634 37.5845 25.3365 37.739C25.7095 37.8936 26.0284 38.1553 26.2527 38.491C26.4771 38.8267 26.5968 39.2215 26.5968 39.6253C26.5959 40.1665 26.3805 40.6852 25.9978 41.0679C25.6151 41.4506 25.0964 41.666 24.5552 41.6669Z" fill="#1950D2"/>
</g>
<defs>
<clipPath id="clip0_152_40473">
<rect width="28" height="28" fill="white" transform="translate(16 16)"/>
</clipPath>
</defs>
</svg>
