<svg width="60" height="60" viewBox="0 0 60 60" fill="none" xmlns="http://www.w3.org/2000/svg">
<rect width="60" height="60" rx="30" fill="#E0E5FF"/>
<g clip-path="url(#clip0_152_40482)">
<path d="M39.3333 24.1667H37.3057C37.9653 23.5852 38.4889 22.8657 38.8393 22.0592C39.1897 21.2527 39.3584 20.379 39.3333 19.5C39.3333 19.1906 39.2104 18.8938 38.9916 18.675C38.7728 18.4562 38.4761 18.3333 38.1667 18.3333C37.8572 18.3333 37.5605 18.4562 37.3417 18.675C37.1229 18.8938 37 19.1906 37 19.5C37 22.559 34.2338 23.6183 32.1303 23.9812C32.9067 22.6046 33.3741 21.0754 33.5 19.5C33.5 18.5717 33.1313 17.6815 32.4749 17.0251C31.8185 16.3687 30.9283 16 30 16C29.0717 16 28.1815 16.3687 27.5251 17.0251C26.8687 17.6815 26.5 18.5717 26.5 19.5C26.6259 21.0754 27.0933 22.6046 27.8697 23.9812C25.7662 23.6183 23 22.559 23 19.5C23 19.1906 22.8771 18.8938 22.6583 18.675C22.4395 18.4562 22.1428 18.3333 21.8333 18.3333C21.5239 18.3333 21.2272 18.4562 21.0084 18.675C20.7896 18.8938 20.6667 19.1906 20.6667 19.5C20.6416 20.379 20.8103 21.2527 21.1607 22.0592C21.5111 22.8657 22.0347 23.5852 22.6943 24.1667H20.6667C19.429 24.1667 18.242 24.6583 17.3668 25.5335C16.4917 26.4087 16 27.5957 16 28.8333V30C16 30.6188 16.2458 31.2123 16.6834 31.6499C17.121 32.0875 17.7145 32.3333 18.3333 32.3333V38.1667C18.3352 39.7132 18.9504 41.1959 20.0439 42.2894C21.1375 43.383 22.6201 43.9981 24.1667 44H35.8333C37.3799 43.9981 38.8625 43.383 39.9561 42.2894C41.0496 41.1959 41.6648 39.7132 41.6667 38.1667V32.3333C42.2855 32.3333 42.879 32.0875 43.3166 31.6499C43.7542 31.2123 44 30.6188 44 30V28.8333C44 27.5957 43.5083 26.4087 42.6332 25.5335C41.758 24.6583 40.571 24.1667 39.3333 24.1667ZM30 18.3333C30.3094 18.3333 30.6062 18.4562 30.825 18.675C31.0437 18.8938 31.1667 19.1906 31.1667 19.5C31.0258 20.74 30.6285 21.9371 30 23.0152C29.3715 21.9371 28.9742 20.74 28.8333 19.5C28.8333 19.1906 28.9562 18.8938 29.175 18.675C29.3938 18.4562 29.6906 18.3333 30 18.3333ZM18.3333 28.8333C18.3333 28.2145 18.5792 27.621 19.0168 27.1834C19.4543 26.7458 20.0478 26.5 20.6667 26.5H28.8333V30H18.3333V28.8333ZM20.6667 38.1667V32.3333H28.8333V41.6667H24.1667C23.2384 41.6667 22.3482 41.2979 21.6918 40.6415C21.0354 39.9852 20.6667 39.0949 20.6667 38.1667ZM39.3333 38.1667C39.3333 39.0949 38.9646 39.9852 38.3082 40.6415C37.6518 41.2979 36.7616 41.6667 35.8333 41.6667H31.1667V32.3333H39.3333V38.1667ZM31.1667 30V26.5H39.3333C39.9522 26.5 40.5457 26.7458 40.9832 27.1834C41.4208 27.621 41.6667 28.2145 41.6667 28.8333V30H31.1667Z" fill="#1950D2"/>
</g>
<defs>
<clipPath id="clip0_152_40482">
<rect width="28" height="28" fill="white" transform="translate(16 16)"/>
</clipPath>
</defs>
</svg>
