<svg width="60" height="60" viewBox="0 0 60 60" fill="none" xmlns="http://www.w3.org/2000/svg">
<rect width="60" height="60" rx="30" fill="#E0E5FF"/>
<g clip-path="url(#clip0_117_39097)">
<path d="M26.5 30C27.8845 30 29.2378 29.5895 30.389 28.8203C31.5401 28.0511 32.4373 26.9579 32.9672 25.6788C33.497 24.3997 33.6356 22.9922 33.3655 21.6344C33.0954 20.2765 32.4287 19.0292 31.4497 18.0503C30.4708 17.0713 29.2235 16.4046 27.8656 16.1345C26.5078 15.8644 25.1003 16.003 23.8212 16.5328C22.5421 17.0627 21.4489 17.9599 20.6797 19.111C19.9105 20.2622 19.5 21.6155 19.5 23C19.5019 24.8559 20.2399 26.6354 21.5523 27.9477C22.8647 29.2601 24.6441 29.9981 26.5 30ZM26.5 18.3333C27.423 18.3333 28.3252 18.607 29.0927 19.1198C29.8601 19.6326 30.4582 20.3614 30.8114 21.2141C31.1646 22.0669 31.2571 23.0052 31.077 23.9104C30.8969 24.8157 30.4525 25.6472 29.7998 26.2998C29.1472 26.9525 28.3157 27.3969 27.4104 27.577C26.5052 27.7571 25.5669 27.6646 24.7141 27.3114C23.8614 26.9582 23.1326 26.3601 22.6198 25.5927C22.107 24.8252 21.8333 23.923 21.8333 23C21.8333 21.7623 22.325 20.5753 23.2002 19.7002C24.0753 18.825 25.2623 18.3333 26.5 18.3333Z" fill="#1950D2"/>
<path d="M26.5 32.333C23.7163 32.3364 21.0475 33.4437 19.0791 35.4121C17.1107 37.3805 16.0034 40.0493 16 42.833C16 43.1424 16.1229 43.4391 16.3417 43.6579C16.5605 43.8767 16.8572 43.9996 17.1667 43.9996C17.4761 43.9996 17.7728 43.8767 17.9916 43.6579C18.2104 43.4391 18.3333 43.1424 18.3333 42.833C18.3333 40.667 19.1937 38.5898 20.7253 37.0583C22.2568 35.5267 24.3341 34.6663 26.5 34.6663C28.6659 34.6663 30.7432 35.5267 32.2747 37.0583C33.8063 38.5898 34.6667 40.667 34.6667 42.833C34.6667 43.1424 34.7896 43.4391 35.0084 43.6579C35.2272 43.8767 35.5239 43.9996 35.8333 43.9996C36.1428 43.9996 36.4395 43.8767 36.6583 43.6579C36.8771 43.4391 37 43.1424 37 42.833C36.9966 40.0493 35.8893 37.3805 33.9209 35.4121C31.9525 33.4437 29.2837 32.3364 26.5 32.333Z" fill="#1950D2"/>
<path d="M41.6666 25.1875C41.0173 25.2198 40.4073 25.5081 39.97 25.9891C39.5327 26.4701 39.3037 27.1048 39.3332 27.7542C39.3627 27.1048 39.1338 26.4701 38.6965 25.9891C38.2592 25.5081 37.6492 25.2198 36.9999 25.1875C36.3506 25.2198 35.7406 25.5081 35.3033 25.9891C34.866 26.4701 34.6371 27.1048 34.6666 27.7542C34.6666 29.7725 37.2986 32.1373 38.6099 33.1897C38.8152 33.354 39.0703 33.4436 39.3332 33.4436C39.5962 33.4436 39.8513 33.354 40.0566 33.1897C41.3679 32.1397 43.9999 29.7725 43.9999 27.7542C44.0294 27.1048 43.8005 26.4701 43.3632 25.9891C42.9259 25.5081 42.3158 25.2198 41.6666 25.1875Z" fill="#1950D2"/>
</g>
<defs>
<clipPath id="clip0_117_39097">
<rect width="28" height="28" fill="white" transform="translate(16 16)"/>
</clipPath>
</defs>
</svg>
