<svg width="20" height="30" viewBox="0 0 20 30" fill="none" xmlns="http://www.w3.org/2000/svg">
<path d="M11.6103 8.33333C12.2882 8.334 12.9381 8.60357 13.4174 9.08289C13.8968 9.56222 14.1663 10.2121 14.167 10.89C14.167 11.111 14.2548 11.323 14.4111 11.4793C14.5674 11.6355 14.7793 11.7233 15.0003 11.7233C15.2213 11.7233 15.4333 11.6355 15.5896 11.4793C15.7459 11.323 15.8337 11.111 15.8337 10.89V10.8333C15.8337 10.8175 15.8337 10.8033 15.8337 10.7875C15.8058 9.68561 15.3488 8.63815 14.5599 7.86838C13.7709 7.09861 12.7126 6.6674 11.6103 6.66667H10.8337V5.83333C10.8337 5.61232 10.7459 5.40036 10.5896 5.24408C10.4333 5.0878 10.2213 5 10.0003 5C9.77931 5 9.56735 5.0878 9.41107 5.24408C9.25479 5.40036 9.16699 5.61232 9.16699 5.83333V6.66667H8.39033C7.38809 6.66774 6.4189 7.02519 5.65599 7.67515C4.89307 8.3251 4.38617 9.22519 4.22587 10.2145C4.06557 11.2039 4.26233 12.2179 4.78099 13.0755C5.29964 13.9331 6.10637 14.5784 7.05699 14.8958L9.16699 15.6V21.6667H8.39033C7.71246 21.666 7.06255 21.3964 6.58322 20.9171C6.1039 20.4378 5.83432 19.7879 5.83366 19.11C5.83366 18.889 5.74586 18.677 5.58958 18.5207C5.4333 18.3645 5.22134 18.2767 5.00033 18.2767C4.77931 18.2767 4.56735 18.3645 4.41107 18.5207C4.25479 18.677 4.16699 18.889 4.16699 19.11V19.1667C4.16699 19.1825 4.16699 19.1967 4.16699 19.2125C4.1948 20.3144 4.65188 21.3618 5.4408 22.1316C6.22971 22.9014 7.28808 23.3326 8.39033 23.3333H9.16699V24.1667C9.16699 24.3877 9.25479 24.5996 9.41107 24.7559C9.56735 24.9122 9.77931 25 10.0003 25C10.2213 25 10.4333 24.9122 10.5896 24.7559C10.7459 24.5996 10.8337 24.3877 10.8337 24.1667V23.3333H11.6103C12.6126 23.3323 13.5818 22.9748 14.3447 22.3249C15.1076 21.6749 15.6145 20.7748 15.7748 19.7855C15.9351 18.7961 15.7383 17.7821 15.2197 16.9245C14.701 16.0669 13.8943 15.4216 12.9437 15.1042L10.8337 14.4V8.33333H11.6103ZM12.4187 16.6842C12.9948 16.8759 13.484 17.2665 13.7984 17.786C14.1129 18.3055 14.2322 18.92 14.1349 19.5194C14.0377 20.1189 13.7303 20.6641 13.2677 21.0575C12.8051 21.451 12.2176 21.6669 11.6103 21.6667H10.8337V16.1558L12.4187 16.6842ZM9.16699 13.8442L7.58366 13.3158C7.00761 13.1241 6.51858 12.7336 6.2041 12.2143C5.88962 11.695 5.77021 11.0807 5.86724 10.4814C5.96427 9.88208 6.27141 9.33685 6.73369 8.94329C7.19596 8.54972 7.78321 8.3335 8.39033 8.33333H9.16699V13.8442Z" fill="#1950D2"/>
</svg>
