<svg width="20" height="30" viewBox="0 0 20 30" fill="none" xmlns="http://www.w3.org/2000/svg">
<g clip-path="url(#clip0_139_39836)">
<path d="M15.8333 8.33333H14.9167C14.7233 7.39284 14.2115 6.54779 13.4677 5.9406C12.7239 5.33341 11.7935 5.00121 10.8333 5L9.16667 5C8.2065 5.00121 7.2761 5.33341 6.53229 5.9406C5.78848 6.54779 5.27675 7.39284 5.08333 8.33333H4.16667C3.062 8.33466 2.00296 8.77407 1.22185 9.55518C0.440735 10.3363 0.00132321 11.3953 0 12.5L0 20.8333C0.00132321 21.938 0.440735 22.997 1.22185 23.7782C2.00296 24.5593 3.062 24.9987 4.16667 25H15.8333C16.938 24.9987 17.997 24.5593 18.7782 23.7782C19.5593 22.997 19.9987 21.938 20 20.8333V12.5C19.9987 11.3953 19.5593 10.3363 18.7782 9.55518C17.997 8.77407 16.938 8.33466 15.8333 8.33333ZM9.16667 6.66667H10.8333C11.3485 6.6688 11.8505 6.83007 12.2706 7.12841C12.6906 7.42674 13.0083 7.84758 13.18 8.33333H6.82C6.99174 7.84758 7.30936 7.42674 7.72942 7.12841C8.14948 6.83007 8.65145 6.6688 9.16667 6.66667ZM4.16667 10H15.8333C16.4964 10 17.1323 10.2634 17.6011 10.7322C18.0699 11.2011 18.3333 11.837 18.3333 12.5V15H1.66667V12.5C1.66667 11.837 1.93006 11.2011 2.3989 10.7322C2.86774 10.2634 3.50363 10 4.16667 10ZM15.8333 23.3333H4.16667C3.50363 23.3333 2.86774 23.0699 2.3989 22.6011C1.93006 22.1323 1.66667 21.4964 1.66667 20.8333V16.6667H9.16667V17.5C9.16667 17.721 9.25446 17.933 9.41074 18.0893C9.56702 18.2455 9.77899 18.3333 10 18.3333C10.221 18.3333 10.433 18.2455 10.5893 18.0893C10.7455 17.933 10.8333 17.721 10.8333 17.5V16.6667H18.3333V20.8333C18.3333 21.4964 18.0699 22.1323 17.6011 22.6011C17.1323 23.0699 16.4964 23.3333 15.8333 23.3333Z" fill="#1950D2"/>
</g>
<defs>
<clipPath id="clip0_139_39836">
<rect width="20" height="20" fill="white" transform="translate(0 5)"/>
</clipPath>
</defs>
</svg>
