<svg width="1028" height="790" viewBox="0 0 1028 790" fill="none" xmlns="http://www.w3.org/2000/svg">
<path d="M525.142 197C631 197 666.078 261.15 645.785 348.948C623.221 446.572 574.205 463.105 477.93 463.105H389.045C377.163 463.105 366.738 471.123 363.558 482.709L343.31 588.34C342.936 589.703 341.709 590.647 340.311 590.647H226.672C224.752 590.647 223.298 588.851 223.626 586.937C255.394 401.612 395.67 347.714 483.713 322.27L485.303 318.764C485.653 317.991 485.332 317.076 484.58 316.698L481.595 315.199C354.249 321.103 277.448 264.168 286.573 198.552C285.681 198.552 286.707 197.659 286.573 198.552C379.74 197.946 525.142 197 525.142 197ZM423.607 282.647C421.874 282.444 421.174 284.836 422.736 285.621L481.595 315.199C495.057 314.574 509.085 313.25 523.634 311.157C512.41 314.37 498.831 317.901 483.713 322.27L455.638 384.225C454.952 385.738 456.753 387.152 458.031 386.104L561.271 301.502C562.34 300.625 561.838 298.876 560.47 298.715L423.607 282.647Z" fill="url(#paint0_radial_117_2)"/>
<path d="M363.558 482.709C366.738 471.123 377.163 463.105 389.045 463.105H469.26L561.271 301.502L458.031 386.104C456.753 387.151 454.952 385.738 455.638 384.225L483.713 322.27C395.67 347.713 255.394 401.611 223.626 586.937C223.298 588.851 224.752 590.646 226.672 590.646H340.311C341.709 590.646 342.936 589.703 343.31 588.34L363.558 482.709Z" fill="url(#paint1_radial_117_2)"/>
<path d="M485.303 318.764L483.713 322.27C492.206 319.816 500.213 317.626 507.59 315.608C513.344 314.034 518.715 312.565 523.634 311.157C509.084 313.25 495.057 314.574 481.595 315.198L484.579 316.697C485.332 317.076 485.653 317.991 485.303 318.764Z" fill="url(#paint2_radial_117_2)"/>
<path d="M481.595 315.198L422.736 285.621C421.855 285.178 421.693 284.224 422.031 283.513L404.365 310.38C427.336 314.708 453.21 316.514 481.595 315.198Z" fill="url(#paint3_radial_117_2)"/>
<path d="M422.736 285.621C421.174 284.836 421.874 282.444 423.607 282.647L560.47 298.714C561.838 298.875 562.34 300.624 561.271 301.502L458.031 386.104C456.753 387.151 454.952 385.738 455.638 384.225L483.714 322.27C498.832 317.901 512.41 314.369 523.634 311.157C509.085 313.25 495.057 314.574 481.595 315.198L422.736 285.621Z" fill="url(#paint4_linear_117_2)"/>
<path fill-rule="evenodd" clip-rule="evenodd" d="M446.869 490.496C446.91 490.511 446.951 490.526 446.992 490.542C447.051 490.565 447.109 490.588 447.167 490.612M446.869 490.496C446.91 490.511 446.951 490.526 446.992 490.542C447.051 490.565 447.109 490.588 447.167 490.612" fill="url(#paint5_linear_117_2)"/>
<path fill-rule="evenodd" clip-rule="evenodd" d="M446.869 490.496C446.91 490.511 446.951 490.526 446.992 490.542C447.051 490.565 447.109 490.588 447.167 490.612M446.869 490.496C446.91 490.511 446.951 490.526 446.992 490.542C447.051 490.565 447.109 490.588 447.167 490.612" fill="url(#paint6_linear_117_2)"/>
<path fill-rule="evenodd" clip-rule="evenodd" d="M401.691 513.349H392.627L390.046 529.691H379.725L387.466 480.729H405.529C414.66 480.729 420.482 486.353 420.482 495.153C420.482 505.872 412.807 513.349 401.691 513.349ZM396.332 489.993H402.816C407.315 489.993 409.763 492.242 409.763 496.212C409.763 501.24 406.521 504.086 400.897 504.086H394.082L396.332 489.993Z" fill="url(#paint7_linear_117_2)"/>
<path d="M385.578 588.009L375.389 539.047H385.975L391.136 564.256C391.731 567.3 392.194 570.211 392.591 574.512C394.775 569.549 395.833 567.3 397.355 564.322L410.39 539.047H421.865L396.332 588.009H385.578Z" fill="url(#paint8_linear_117_2)"/>
<path d="M429.722 529.691L432.435 512.422L440.705 512.422L440.733 512.515L446.633 502.296C445.337 502.946 443.741 503.291 441.896 503.291L439.482 503.292L433.89 503.292L436.007 489.993H443.683C444.891 489.993 445.96 490.165 446.869 490.496C446.91 490.511 446.951 490.526 446.992 490.542C447.051 490.565 447.109 490.588 447.167 490.612C447.345 490.687 447.518 490.769 447.683 490.857C447.938 490.992 448.177 491.143 448.398 491.309C448.944 491.718 449.388 492.218 449.719 492.801C450.182 493.615 450.427 494.594 450.431 495.718L456.891 484.529C455.592 483.379 454.024 482.468 452.221 481.826C452.125 481.792 452.029 481.759 451.932 481.727C449.985 481.074 447.773 480.729 445.337 480.729H427.141L419.4 529.691L429.722 529.691Z" fill="url(#paint9_linear_117_2)"/>
<path d="M509.899 501.438C509.899 517.847 498.651 530.484 483.698 530.484C470.928 530.484 462.393 521.817 462.393 509.047C462.393 492.638 473.575 479.935 488.528 479.935C501.298 479.935 509.899 488.668 509.899 501.438ZM498.849 502.497C498.849 494.623 494.747 489.992 487.601 489.992C479.463 489.992 473.442 497.799 473.442 507.922C473.442 515.663 477.611 520.361 484.69 520.361C492.828 520.361 498.849 512.554 498.849 502.497Z" fill="url(#paint10_linear_117_2)"/>
<path d="M520.905 529.69L510.716 480.729H521.302L526.463 505.937C527.059 508.981 527.522 511.892 527.919 516.193C530.102 511.23 531.161 508.981 532.683 506.003L545.717 480.729H556.965L531.624 529.69H520.905Z" fill="url(#paint11_linear_117_2)"/>
<path d="M570.317 480.729L562.576 529.69H552.254L559.995 480.729H570.317Z" fill="url(#paint12_linear_117_2)"/>
<path d="M588.813 529.69H570.155L577.896 480.729H595.297C607.339 480.729 616.271 490.19 616.271 503.092C616.271 518.773 605.023 529.69 588.813 529.69ZM593.378 490.389H586.696L581.998 520.03H589.342C599.002 520.03 605.222 513.414 605.222 503.092C605.222 495.417 600.524 490.389 593.378 490.389Z" fill="url(#paint13_linear_117_2)"/>
<path d="M647.761 529.69H617.325L625.066 480.729H655.502L653.98 490.389H633.866L632.278 500.446H650.076L648.621 509.576H630.823L629.169 520.03H649.282L647.761 529.69Z" fill="url(#paint14_linear_117_2)"/>
<path d="M436.945 554.463C436.945 544.538 444.09 538.12 455.007 538.12C464.403 538.12 471.747 544.604 472.078 553.206H461.69C461.293 549.633 458.514 547.383 454.478 547.383C449.847 547.383 447.2 549.368 447.2 552.941C447.2 555.72 448.722 557.374 452.096 558.367L459.044 560.418C466.255 562.601 469.696 566.637 469.696 573.055C469.696 582.583 462.484 588.868 451.435 588.868C440.782 588.868 433.901 583.112 433.57 573.783H443.958C444.157 577.422 447.134 579.605 451.898 579.605C456.662 579.605 459.507 577.554 459.507 574.114C459.507 571.666 458.382 570.475 455.272 569.548L448.126 567.497C440.981 565.446 436.945 560.748 436.945 554.463Z" fill="url(#paint15_linear_117_2)"/>
<path d="M478.924 588.008H467.676L492.554 539.047H502.677L512.006 588.008H501.42L499.699 577.554H484.085L478.924 588.008ZM493.811 557.639L488.452 568.821H498.178L496.325 557.639C496.127 556.448 495.796 554.132 495.796 553.007C495.399 554.132 494.605 556.051 493.811 557.639Z" fill="url(#paint16_linear_117_2)"/>
<path d="M551.919 588.802C538.422 588.802 530.68 579.87 530.68 567.299C530.68 550.295 542.127 538.253 557.609 538.253C569.784 538.253 577.128 545.531 577.525 556.183H566.475C565.681 550.758 561.645 548.376 556.286 548.376C547.288 548.376 541.73 556.183 541.73 566.637C541.73 573.783 545.634 578.679 552.316 578.679C558.271 578.679 562.307 576.429 564.557 570.739H575.937C572.165 582.583 563.763 588.802 551.919 588.802Z" fill="url(#paint17_linear_117_2)"/>
<path d="M626.131 559.756C626.131 576.165 614.883 588.802 599.93 588.802C587.16 588.802 578.625 580.135 578.625 567.365C578.625 550.956 589.807 538.253 604.76 538.253C617.53 538.253 626.131 546.986 626.131 559.756ZM615.081 560.815C615.081 552.941 610.979 548.31 603.833 548.31C595.695 548.31 589.674 556.117 589.674 566.24C589.674 573.981 593.843 578.679 600.922 578.679C609.06 578.679 615.081 570.872 615.081 560.815Z" fill="url(#paint18_linear_117_2)"/>
<path d="M637.257 588.008H627.001L634.743 539.047H644.998L660.348 570.541L665.311 539.047H675.566L667.825 588.008H657.569L642.219 556.514L637.257 588.008Z" fill="url(#paint19_linear_117_2)"/>
<path d="M677.065 554.463C677.065 544.538 684.21 538.12 695.127 538.12C704.523 538.12 711.867 544.604 712.198 553.206H701.81C701.413 549.633 698.634 547.383 694.598 547.383C689.967 547.383 687.32 549.368 687.32 552.941C687.32 555.72 688.842 557.374 692.216 558.367L699.163 560.418C706.375 562.601 709.816 566.637 709.816 573.055C709.816 582.583 702.604 588.868 691.555 588.868C680.902 588.868 674.021 583.112 673.69 573.783H684.078C684.276 577.422 687.254 579.605 692.018 579.605C696.782 579.605 699.627 577.554 699.627 574.114C699.627 571.666 698.502 570.475 695.392 569.548L688.246 567.497C681.101 565.446 677.065 560.748 677.065 554.463Z" fill="url(#paint20_linear_117_2)"/>
<path d="M714.362 569.019L719.125 539.047H729.447L724.749 569.019C723.757 575.172 726.536 578.811 732.491 578.811C738.446 578.811 742.482 575.172 743.474 569.019L748.238 539.047H758.559L753.663 569.747C751.745 581.656 743.937 588.802 731.498 588.802C720.449 588.802 712.509 580.796 714.362 569.019Z" fill="url(#paint21_linear_117_2)"/>
<path d="M776.109 539.047L769.889 578.348H788.945L787.423 588.008H758.046L765.787 539.047H776.109Z" fill="url(#paint22_linear_117_2)"/>
<path d="M788.733 548.707L790.254 539.047H827.77L826.248 548.707H812.684L806.465 588.008H796.143L802.362 548.707H788.733Z" fill="url(#paint23_linear_117_2)"/>
<path d="M509.899 501.438C509.899 517.847 498.651 530.484 483.698 530.484C470.928 530.484 462.393 521.817 462.393 509.047C462.393 492.638 473.575 479.935 488.528 479.935C501.298 479.935 509.899 488.668 509.899 501.438ZM498.849 502.497C498.849 494.623 494.747 489.992 487.601 489.992C479.463 489.992 473.442 497.799 473.442 507.922C473.442 515.663 477.611 520.361 484.69 520.361C492.828 520.361 498.849 512.554 498.849 502.497Z" fill="url(#paint24_linear_117_2)"/>
<path d="M520.905 529.69L510.716 480.729H521.302L526.463 505.937C527.059 508.981 527.522 511.892 527.919 516.193C530.102 511.23 531.161 508.981 532.683 506.003L545.717 480.729H556.965L531.624 529.69H520.905Z" fill="url(#paint25_linear_117_2)"/>
<path d="M570.317 480.729L562.576 529.69H552.254L559.995 480.729H570.317Z" fill="url(#paint26_linear_117_2)"/>
<path d="M588.813 529.69H570.155L577.896 480.729H595.297C607.339 480.729 616.271 490.19 616.271 503.092C616.271 518.773 605.023 529.69 588.813 529.69ZM593.378 490.389H586.696L581.998 520.03H589.342C599.002 520.03 605.222 513.414 605.222 503.092C605.222 495.417 600.524 490.389 593.378 490.389Z" fill="url(#paint27_linear_117_2)"/>
<path d="M647.761 529.69H617.325L625.066 480.729H655.502L653.98 490.389H633.866L632.278 500.446H650.076L648.621 509.576H630.823L629.169 520.03H649.282L647.761 529.69Z" fill="url(#paint28_linear_117_2)"/>
<path d="M436.945 554.463C436.945 544.538 444.09 538.12 455.007 538.12C464.403 538.12 471.747 544.604 472.078 553.206H461.69C461.293 549.633 458.514 547.383 454.478 547.383C449.847 547.383 447.2 549.368 447.2 552.941C447.2 555.72 448.722 557.374 452.096 558.367L459.044 560.418C466.255 562.601 469.696 566.637 469.696 573.055C469.696 582.583 462.484 588.868 451.435 588.868C440.782 588.868 433.901 583.112 433.57 573.783H443.958C444.157 577.422 447.134 579.605 451.898 579.605C456.662 579.605 459.507 577.554 459.507 574.114C459.507 571.666 458.382 570.475 455.272 569.548L448.126 567.497C440.981 565.446 436.945 560.748 436.945 554.463Z" fill="url(#paint29_linear_117_2)"/>
<path d="M478.924 588.008H467.676L492.554 539.047H502.677L512.006 588.008H501.42L499.699 577.554H484.085L478.924 588.008ZM493.811 557.639L488.452 568.821H498.178L496.325 557.639C496.127 556.448 495.796 554.132 495.796 553.007C495.399 554.132 494.605 556.051 493.811 557.639Z" fill="url(#paint30_linear_117_2)"/>
<path d="M551.919 588.802C538.422 588.802 530.68 579.87 530.68 567.299C530.68 550.295 542.127 538.253 557.609 538.253C569.784 538.253 577.128 545.531 577.525 556.183H566.475C565.681 550.758 561.645 548.376 556.286 548.376C547.288 548.376 541.73 556.183 541.73 566.637C541.73 573.783 545.634 578.679 552.316 578.679C558.271 578.679 562.307 576.429 564.557 570.739H575.937C572.165 582.583 563.763 588.802 551.919 588.802Z" fill="url(#paint31_linear_117_2)"/>
<path d="M626.131 559.756C626.131 576.165 614.883 588.802 599.93 588.802C587.16 588.802 578.625 580.135 578.625 567.365C578.625 550.956 589.807 538.253 604.76 538.253C617.53 538.253 626.131 546.986 626.131 559.756ZM615.081 560.815C615.081 552.941 610.979 548.31 603.833 548.31C595.695 548.31 589.674 556.117 589.674 566.24C589.674 573.981 593.843 578.679 600.922 578.679C609.06 578.679 615.081 570.872 615.081 560.815Z" fill="url(#paint32_linear_117_2)"/>
<path d="M637.257 588.008H627.001L634.743 539.047H644.998L660.348 570.541L665.311 539.047H675.566L667.825 588.008H657.569L642.219 556.514L637.257 588.008Z" fill="url(#paint33_linear_117_2)"/>
<path d="M677.065 554.463C677.065 544.538 684.21 538.12 695.127 538.12C704.523 538.12 711.867 544.604 712.198 553.206H701.81C701.413 549.633 698.634 547.383 694.598 547.383C689.967 547.383 687.32 549.368 687.32 552.941C687.32 555.72 688.842 557.374 692.216 558.367L699.163 560.418C706.375 562.601 709.816 566.637 709.816 573.055C709.816 582.583 702.604 588.868 691.555 588.868C680.902 588.868 674.021 583.112 673.69 573.783H684.078C684.276 577.422 687.254 579.605 692.018 579.605C696.782 579.605 699.627 577.554 699.627 574.114C699.627 571.666 698.502 570.475 695.392 569.548L688.246 567.497C681.101 565.446 677.065 560.748 677.065 554.463Z" fill="url(#paint34_linear_117_2)"/>
<path d="M714.362 569.019L719.125 539.047H729.447L724.749 569.019C723.757 575.172 726.536 578.811 732.491 578.811C738.446 578.811 742.482 575.172 743.474 569.019L748.238 539.047H758.559L753.663 569.747C751.745 581.656 743.937 588.802 731.498 588.802C720.449 588.802 712.509 580.796 714.362 569.019Z" fill="url(#paint35_linear_117_2)"/>
<path d="M776.109 539.047L769.889 578.348H788.945L787.423 588.008H758.046L765.787 539.047H776.109Z" fill="url(#paint36_linear_117_2)"/>
<path d="M788.733 548.707L790.254 539.047H827.77L826.248 548.707H812.684L806.465 588.008H796.143L802.362 548.707H788.733Z" fill="url(#paint37_linear_117_2)"/>
<path d="M461.216 494.888C461.216 501.372 457.445 506.863 450.564 510.172L456.585 529.69H445.932L440.734 512.514L446.633 502.296L446.628 502.299C446.728 502.248 446.826 502.196 446.923 502.143C449.165 500.896 450.431 498.66 450.431 495.724L450.431 495.717L453.661 490.123L456.891 484.529C457.119 484.731 457.34 484.941 457.551 485.158C459.911 487.576 461.216 490.895 461.216 494.888Z" fill="url(#paint38_linear_117_2)"/>
<path d="M434.99 539.047L427.248 588.008H416.927L424.668 539.047H434.99Z" fill="url(#paint39_linear_117_2)"/>
<defs>
<radialGradient id="paint0_radial_117_2" cx="0" cy="0" r="1" gradientUnits="userSpaceOnUse" gradientTransform="translate(652.796 122.207) rotate(114.643) scale(515.38 563.164)">
<stop stop-color="#2465FF"/>
<stop offset="1" stop-color="#012475"/>
</radialGradient>
<radialGradient id="paint1_radial_117_2" cx="0" cy="0" r="1" gradientUnits="userSpaceOnUse" gradientTransform="translate(398.534 252.402) rotate(102.317) scale(471.567 517.892)">
<stop stop-color="#031643"/>
<stop offset="1" stop-color="#1145BF"/>
</radialGradient>
<radialGradient id="paint2_radial_117_2" cx="0" cy="0" r="1" gradientUnits="userSpaceOnUse" gradientTransform="translate(455.393 281.561) rotate(94.1849) scale(119.872 154.613)">
<stop stop-color="#08266B"/>
<stop offset="1" stop-color="#104AD1"/>
</radialGradient>
<radialGradient id="paint3_radial_117_2" cx="0" cy="0" r="1" gradientUnits="userSpaceOnUse" gradientTransform="translate(455.393 281.561) rotate(94.1849) scale(119.872 154.613)">
<stop stop-color="#08266B"/>
<stop offset="1" stop-color="#104AD1"/>
</radialGradient>
<linearGradient id="paint4_linear_117_2" x1="491.842" y1="318.009" x2="513.712" y2="395.281" gradientUnits="userSpaceOnUse">
<stop stop-color="white"/>
<stop offset="1" stop-color="#9BB9FF"/>
</linearGradient>
<linearGradient id="paint5_linear_117_2" x1="297.118" y1="303.21" x2="199.327" y2="494.827" gradientUnits="userSpaceOnUse">
<stop stop-color="#031643"/>
<stop offset="1" stop-color="#1145BF"/>
</linearGradient>
<linearGradient id="paint6_linear_117_2" x1="297.118" y1="303.21" x2="199.327" y2="494.827" gradientUnits="userSpaceOnUse">
<stop stop-color="#031643"/>
<stop offset="1" stop-color="#1145BF"/>
</linearGradient>
<linearGradient id="paint7_linear_117_2" x1="297.118" y1="303.21" x2="199.327" y2="494.827" gradientUnits="userSpaceOnUse">
<stop stop-color="#031643"/>
<stop offset="1" stop-color="#1145BF"/>
</linearGradient>
<linearGradient id="paint8_linear_117_2" x1="297.118" y1="303.21" x2="199.327" y2="494.827" gradientUnits="userSpaceOnUse">
<stop stop-color="#031643"/>
<stop offset="1" stop-color="#1145BF"/>
</linearGradient>
<linearGradient id="paint9_linear_117_2" x1="297.118" y1="303.21" x2="199.327" y2="494.827" gradientUnits="userSpaceOnUse">
<stop stop-color="#031643"/>
<stop offset="1" stop-color="#1145BF"/>
</linearGradient>
<linearGradient id="paint10_linear_117_2" x1="622.348" y1="443.292" x2="622.348" y2="588.868" gradientUnits="userSpaceOnUse">
<stop stop-color="#3267E4"/>
<stop offset="1" stop-color="#1448C1"/>
</linearGradient>
<linearGradient id="paint11_linear_117_2" x1="622.348" y1="443.292" x2="622.348" y2="588.868" gradientUnits="userSpaceOnUse">
<stop stop-color="#3267E4"/>
<stop offset="1" stop-color="#1448C1"/>
</linearGradient>
<linearGradient id="paint12_linear_117_2" x1="622.348" y1="443.292" x2="622.348" y2="588.868" gradientUnits="userSpaceOnUse">
<stop stop-color="#3267E4"/>
<stop offset="1" stop-color="#1448C1"/>
</linearGradient>
<linearGradient id="paint13_linear_117_2" x1="622.348" y1="443.292" x2="622.348" y2="588.868" gradientUnits="userSpaceOnUse">
<stop stop-color="#3267E4"/>
<stop offset="1" stop-color="#1448C1"/>
</linearGradient>
<linearGradient id="paint14_linear_117_2" x1="622.348" y1="443.292" x2="622.348" y2="588.868" gradientUnits="userSpaceOnUse">
<stop stop-color="#3267E4"/>
<stop offset="1" stop-color="#1448C1"/>
</linearGradient>
<linearGradient id="paint15_linear_117_2" x1="622.348" y1="443.292" x2="622.348" y2="588.868" gradientUnits="userSpaceOnUse">
<stop stop-color="#3267E4"/>
<stop offset="1" stop-color="#1448C1"/>
</linearGradient>
<linearGradient id="paint16_linear_117_2" x1="622.348" y1="443.292" x2="622.348" y2="588.868" gradientUnits="userSpaceOnUse">
<stop stop-color="#3267E4"/>
<stop offset="1" stop-color="#1448C1"/>
</linearGradient>
<linearGradient id="paint17_linear_117_2" x1="622.348" y1="443.292" x2="622.348" y2="588.868" gradientUnits="userSpaceOnUse">
<stop stop-color="#3267E4"/>
<stop offset="1" stop-color="#1448C1"/>
</linearGradient>
<linearGradient id="paint18_linear_117_2" x1="622.348" y1="443.292" x2="622.348" y2="588.868" gradientUnits="userSpaceOnUse">
<stop stop-color="#3267E4"/>
<stop offset="1" stop-color="#1448C1"/>
</linearGradient>
<linearGradient id="paint19_linear_117_2" x1="622.348" y1="443.292" x2="622.348" y2="588.868" gradientUnits="userSpaceOnUse">
<stop stop-color="#3267E4"/>
<stop offset="1" stop-color="#1448C1"/>
</linearGradient>
<linearGradient id="paint20_linear_117_2" x1="622.348" y1="443.292" x2="622.348" y2="588.868" gradientUnits="userSpaceOnUse">
<stop stop-color="#3267E4"/>
<stop offset="1" stop-color="#1448C1"/>
</linearGradient>
<linearGradient id="paint21_linear_117_2" x1="622.348" y1="443.292" x2="622.348" y2="588.868" gradientUnits="userSpaceOnUse">
<stop stop-color="#3267E4"/>
<stop offset="1" stop-color="#1448C1"/>
</linearGradient>
<linearGradient id="paint22_linear_117_2" x1="622.348" y1="443.292" x2="622.348" y2="588.868" gradientUnits="userSpaceOnUse">
<stop stop-color="#3267E4"/>
<stop offset="1" stop-color="#1448C1"/>
</linearGradient>
<linearGradient id="paint23_linear_117_2" x1="622.348" y1="443.292" x2="622.348" y2="588.868" gradientUnits="userSpaceOnUse">
<stop stop-color="#3267E4"/>
<stop offset="1" stop-color="#1448C1"/>
</linearGradient>
<linearGradient id="paint24_linear_117_2" x1="622.348" y1="443.292" x2="622.348" y2="588.868" gradientUnits="userSpaceOnUse">
<stop stop-color="#3267E4"/>
<stop offset="1" stop-color="#1448C1"/>
</linearGradient>
<linearGradient id="paint25_linear_117_2" x1="622.348" y1="443.292" x2="622.348" y2="588.868" gradientUnits="userSpaceOnUse">
<stop stop-color="#3267E4"/>
<stop offset="1" stop-color="#1448C1"/>
</linearGradient>
<linearGradient id="paint26_linear_117_2" x1="622.348" y1="443.292" x2="622.348" y2="588.868" gradientUnits="userSpaceOnUse">
<stop stop-color="#3267E4"/>
<stop offset="1" stop-color="#1448C1"/>
</linearGradient>
<linearGradient id="paint27_linear_117_2" x1="622.348" y1="443.292" x2="622.348" y2="588.868" gradientUnits="userSpaceOnUse">
<stop stop-color="#3267E4"/>
<stop offset="1" stop-color="#1448C1"/>
</linearGradient>
<linearGradient id="paint28_linear_117_2" x1="622.348" y1="443.292" x2="622.348" y2="588.868" gradientUnits="userSpaceOnUse">
<stop stop-color="#3267E4"/>
<stop offset="1" stop-color="#1448C1"/>
</linearGradient>
<linearGradient id="paint29_linear_117_2" x1="622.348" y1="443.292" x2="622.348" y2="588.868" gradientUnits="userSpaceOnUse">
<stop stop-color="#3267E4"/>
<stop offset="1" stop-color="#1448C1"/>
</linearGradient>
<linearGradient id="paint30_linear_117_2" x1="622.348" y1="443.292" x2="622.348" y2="588.868" gradientUnits="userSpaceOnUse">
<stop stop-color="#3267E4"/>
<stop offset="1" stop-color="#1448C1"/>
</linearGradient>
<linearGradient id="paint31_linear_117_2" x1="622.348" y1="443.292" x2="622.348" y2="588.868" gradientUnits="userSpaceOnUse">
<stop stop-color="#3267E4"/>
<stop offset="1" stop-color="#1448C1"/>
</linearGradient>
<linearGradient id="paint32_linear_117_2" x1="622.348" y1="443.292" x2="622.348" y2="588.868" gradientUnits="userSpaceOnUse">
<stop stop-color="#3267E4"/>
<stop offset="1" stop-color="#1448C1"/>
</linearGradient>
<linearGradient id="paint33_linear_117_2" x1="622.348" y1="443.292" x2="622.348" y2="588.868" gradientUnits="userSpaceOnUse">
<stop stop-color="#3267E4"/>
<stop offset="1" stop-color="#1448C1"/>
</linearGradient>
<linearGradient id="paint34_linear_117_2" x1="622.348" y1="443.292" x2="622.348" y2="588.868" gradientUnits="userSpaceOnUse">
<stop stop-color="#3267E4"/>
<stop offset="1" stop-color="#1448C1"/>
</linearGradient>
<linearGradient id="paint35_linear_117_2" x1="622.348" y1="443.292" x2="622.348" y2="588.868" gradientUnits="userSpaceOnUse">
<stop stop-color="#3267E4"/>
<stop offset="1" stop-color="#1448C1"/>
</linearGradient>
<linearGradient id="paint36_linear_117_2" x1="622.348" y1="443.292" x2="622.348" y2="588.868" gradientUnits="userSpaceOnUse">
<stop stop-color="#3267E4"/>
<stop offset="1" stop-color="#1448C1"/>
</linearGradient>
<linearGradient id="paint37_linear_117_2" x1="622.348" y1="443.292" x2="622.348" y2="588.868" gradientUnits="userSpaceOnUse">
<stop stop-color="#3267E4"/>
<stop offset="1" stop-color="#1448C1"/>
</linearGradient>
<linearGradient id="paint38_linear_117_2" x1="622.348" y1="443.292" x2="622.348" y2="588.868" gradientUnits="userSpaceOnUse">
<stop stop-color="#3267E4"/>
<stop offset="1" stop-color="#1448C1"/>
</linearGradient>
<linearGradient id="paint39_linear_117_2" x1="622.348" y1="443.292" x2="622.348" y2="588.868" gradientUnits="userSpaceOnUse">
<stop stop-color="#3267E4"/>
<stop offset="1" stop-color="#1448C1"/>
</linearGradient>
</defs>
</svg>
